<?xml version='1.0' encoding='utf-8'?>
<svg version="1.1" xmlns="http://www.w3.org/2000/svg" viewBox="0 0 32 32" xmlns:xlink="http://www.w3.org/1999/xlink">
      <path d="m21.978 23.417c.198.198 .447.298 .719.298s.521-.099.719-.298l6.698-6.698c.05-.05.099-.099.124-.149 0 0 .025-.025.025-.05.025-.05.05-.099.074-.124 0-.025 0-.05.025-.05.025-.05.025-.074.05-.124.025-.074.025-.124.025-.198 0-.074 0-.124-.025-.198 0-.05-.025-.099-.05-.124 0-.025 0-.05-.025-.05-.025-.05-.05-.099-.074-.149 0 0 0-.025-.025-.025-.025-.05-.074-.099-.124-.149l-6.698-6.698c-.397-.397-1.042-.397-1.439 0-.397.397-.397 1.042 0 1.439l4.961 4.961h-17.637c-.571 0-1.017.447-1.017 1.017 0 .571.447 1.017 1.017 1.017h17.637l-4.961 4.961c-.397.347-.397.992 0 1.389z"/>
      <path d="m2.605 30.388h13.395c.571 0 1.017-.447 1.017-1.017v-9.997c0-.571-.447-1.017-1.017-1.017s-1.017.447-1.017 1.017v8.98h-11.361v-24.732h11.361v8.98c0 .571.447 1.017 1.017 1.017s1.017-.447 1.017-1.017v-9.997c0-.571-.447-1.017-1.017-1.017h-13.395c-.571 0-1.017.447-1.017 1.017v26.766c.025.571 .471 1.017 1.017 1.017z"/>
</svg>
