<svg xmlns="http://www.w3.org/2000/svg" width="32" height="32" viewBox="0 0 32 32"><path fill="white" d="M32 18.155v-4.309c-2.201-.783-3.592-1.003-4.292-2.692v-.001c-.703-1.695.133-2.845 1.129-4.943l-3.047-3.047c-2.081.989-3.244 1.833-4.943 1.129h-.001c-1.692-.701-1.913-2.101-2.692-4.292h-4.309c-.776 2.18-.999 3.589-2.692 4.292h-.001c-1.695.704-2.843-.131-4.943-1.129l-3.047 3.047c.993 2.091 1.833 3.245 1.129 4.943-.703 1.695-2.112 1.917-4.292 2.693v4.309c2.176.773 3.589.999 4.292 2.692.707 1.709-.152 2.888-1.129 4.943l3.047 3.048c2.083-.991 3.245-1.833 4.943-1.129h.001c1.693.701 1.915 2.105 2.692 4.292h4.309c.776-2.181 1-3.587 2.703-4.296h.001c1.683-.699 2.827.135 4.931 1.135l3.047-3.048c-.992-2.084-1.833-3.244-1.131-4.941.703-1.695 2.117-1.92 4.295-2.695zm-16 3.179c-2.945 0-5.333-2.388-5.333-5.333s2.388-5.333 5.333-5.333 5.333 2.388 5.333 5.333-2.388 5.333-5.333 5.333z"/></svg>