<?xml version="1.0" encoding="iso-8859-1"?>
<svg version="1.1" xmlns="http://www.w3.org/2000/svg" xmlns:xlink="http://www.w3.org/1999/xlink" x="0px" y="0px"
	 viewBox="0 0 32 32" xml:space="preserve">
	<path fill="white" d="M23.181 5.636l-1.55 1.675c3.309 2.169 5.231 6.144 4.578 10.299-.431 2.738-1.902 5.145-4.143 6.777-1.956 1.424-4.295 2.11-6.679 1.973l.41-.43c-.008 0-.017.001-.024 0l1.551-1.628-1.433-1.367-3.076 3.23-.001-.001-1.327 1.394 1.432 1.366.001 0 3.229 3.077 1.329-1.394-2.091-1.992c2.862.135 5.661-.696 8.009-2.406 2.728-1.986 4.519-4.916 5.044-8.249C29.209 13.036 27.014 8.319 23.181 5.636z"/>
	<path fill="white" d="M5.792 14.391c.431-2.738 1.902-5.145 4.143-6.777 1.956-1.424 4.295-2.11 6.679-1.973l-.41.43c.008 0 .017-.001.024 0l-1.551 1.628 1.433 1.367 3.076-3.23.001 .001 1.327-1.394L19.083 3.076l-.001 0L15.854 0l-1.329 1.394 2.091 1.992c-2.862-.135-5.661.696-8.009 2.406-2.728 1.986-4.519 4.916-5.044 8.249C2.79 18.965 4.986 23.682 8.818 26.365l1.55-1.675C7.061 22.52 5.138 18.546 5.792 14.391z"/>
</svg>
